:SAMPLES-PER-SECOND 30
:FULLY-SPECIFIED
:DEGREES
1374
root  14.6989 38.791 22.291 176.141 72.5534 -178.291
RightUpLeg  19.8886 -17.2673 -6.03306
RightLeg  18.2601 6.20255 4.64881
RightFoot  -18.3931 -0.0622836 0.913045
RightToes  0.00048216 0.542163 -0.142577
Spine  5.69451 3.71104 9.66479
Spine1  11.3153 6.86959 -7.74762
HEad  42.4063 6.60568 -176.276
LeftShoulder1  7.67251 -11.7168 -43.8721
LeftArm  -9.93866 31.7647 -29.2054
LeftForeArm  32.9769 -13.656 -4.2231
LeftHand  -0.25398 0.0180481 5.50724
RightShoulder  5.25346 8.96331 36.1534
RightArm  10.051 2.18346 40.104
RightForeArm  3.85554 32.4631 6.95688
RightHand  -2.45344 7.96071 -21.519
LeftUpLeg  -14.4397 2.42735 -3.23159
LeftLeg  -0.204095 29.0653 -7.50796
LeftFoot  0.739686 -0.370884 3.29672
LeftToes  1.06246e-005 4.65856e-005 -8.18502e-006
1375
root  16.5934 38.5124 21.8472 172.686 71.9366 178.724
RightUpLeg  21.6321 -21.3069 -10.1709
RightLeg  24.0015 12.0049 5.4497
RightFoot  -16.6527 0.123395 5.4637
RightToes  0.00048216 0.542163 -0.142577
Spine  4.94859 4.29779 7.74347
Spine1  11.787 7.34143 -7.43646
HEad  41.1001 6.72636 -175.773
LeftShoulder1  7.64519 -11.6091 -44.035
LeftArm  -10.1755 31.4961 -27.9294
LeftForeArm  32.4976 -13.609 -4.11821
LeftHand  -0.25398 0.0180481 5.50724
RightShoulder  5.39901 9.07091 36.928
RightArm  9.53384 0.82733 39.8596
RightForeArm  3.14688 31.0236 6.6269
RightHand  -2.62513 8.45677 -22.1738
LeftUpLeg  -15.4546 7.40533 -6.96307
LeftLeg  7.90951 22.0411 -2.50649
LeftFoot  2.85395 -1.3677 10.8829
LeftToes  1.06246e-005 4.65856e-005 -8.18502e-006
1376
root  18.3557 38.3702 21.4179 166.927 71.2492 173.298
RightUpLeg  18.7604 -18.0484 -11.806
RightLeg  33.8946 10.1384 6.96474
RightFoot  -8.97938 -0.301599 10.5687
RightToes  0.00048216 0.542163 -0.142577
Spine  5.29565 4.70492 4.96601
Spine1  11.1287 7.60234 -7.29328
HEad  39.7086 6.41512 -175.478
LeftShoulder1  7.60824 -11.468 -44.244
LeftArm  -10.4081 30.77 -26.7889
LeftForeArm  31.7457 -13.6227 -4.03431
LeftHand  -0.25398 0.0180481 5.50724
RightShoulder  5.55524 9.23194 37.5916
RightArm  10.0905 -0.241539 40.3114
RightForeArm  2.18752 27.4329 5.75052
RightHand  -2.83429 9.04885 -22.937
LeftUpLeg  -16.1969 14.9299 -11.8837
LeftLeg  14.4645 12.0693 1.98472
LeftFoot  2.38402 -1.84435 15.1376
LeftToes  1.06246e-005 4.65856e-005 -8.18502e-006
1377
root  19.8698 38.3023 21.0274 161.087 70.1786 167.49
RightUpLeg  11.9483 -14.4581 -12.8479
RightLeg  46.5417 7.23224 7.78638
RightFoot  4.57241 -1.71029 12.6477
RightToes  0.00048216 0.542163 -0.142577
Spine  6.75184 4.74798 2.56301
Spine1  9.69628 7.63803 -8.10647
HEad  38.9337 5.70863 -175.353
LeftShoulder1  7.60604 -11.4604 -44.2541
LeftArm  -10.9401 29.4669 -26.2582
LeftForeArm  30.8147 -13.7892 -3.9205
LeftHand  -0.25398 0.0180481 5.50724
RightShoulder  5.59489 9.36617 37.4495
RightArm  10.3363 -0.840405 41.867
RightForeArm  2.63542 22.1217 5.04094
RightHand  -2.91478 9.38467 -23.049
LeftUpLeg  -15.878 16.452 -14.504
LeftLeg  19.0803 10.2041 4.44606
LeftFoot  -0.930918 -1.35056 14.7068
LeftToes  1.06246e-005 4.65856e-005 -8.18502e-006
1378
root  21.1731 38.2207 20.6584 156.634 69.0772 162.964
RightUpLeg  3.75523 -11.3147 -13.5903
RightLeg  57.9475 4.44641 7.13623
RightFoot  14.8267 -2.50934 11.2394
RightToes  0.00048216 0.542163 -0.142577
Spine  8.55403 4.68446 1.27384
Spine1  8.76302 7.68156 -9.84248
HEad  39.0495 4.86359 -175.802
LeftShoulder1  7.6646 -11.6019 -44.1742
LeftArm  -11.6022 27.5183 -26.3363
LeftForeArm  29.938 -14.808 -3.72037
LeftHand  -0.25398 0.0180481 5.50724
RightShoulder  5.56264 9.48003 36.8394
RightArm  6.04387 -1.18134 43.2456
RightForeArm  7.56993 16.6746 6.23897
RightHand  -2.91042 9.45163 -22.9177
LeftUpLeg  -14.5385 15.7408 -15.5775
LeftLeg  22.1255 11.1543 5.26821
LeftFoot  -4.5815 -0.732915 12.8578
LeftToes  1.06246e-005 4.65856e-005 -8.18502e-006
1379
root  22.4881 38.3059 20.2399 155.537 67.8163 162.062
RightUpLeg  -3.28765 -9.84116 -13.9265
RightLeg  65.3918 1.92974 4.00744
RightFoot  16.2357 -1.94483 8.30938
RightToes  0.00048216 0.542163 -0.142577
Spine  9.70329 4.32641 1.40685
Spine1  8.77143 7.48524 -11.1037
HEad  39.5079 4.04101 -177.264
LeftShoulder1  7.70555 -11.6806 -44.1808
LeftArm  -11.9437 25.2215 -26.8726
LeftForeArm  29.4164 -17.4743 -3.43526
LeftHand  -0.25398 0.0180481 5.50724
RightShoulder  5.58815 9.59554 36.6608
RightArm  1.44015 -1.70164 43.2192
RightForeArm  11.5378 13.1987 7.24995
RightHand  -2.98979 9.51106 -23.422
LeftUpLeg  -11.9879 16.0407 -15.6807
LeftLeg  22.8488 9.84187 4.8725
LeftFoot  -6.81917 -0.432462 11.9991
LeftToes  1.06246e-005 4.65856e-005 -8.18502e-006
1380
root  23.8428 38.6444 19.7807 157.866 65.8101 164.71
RightUpLeg  -8.42929 -10.2224 -13.6697
RightLeg  67.1927 0.0699011 -0.427127
RightFoot  12.4229 -1.19638 6.10935
RightToes  0.00048216 0.542163 -0.142577
Spine  10.2508 3.4537 2.26053
Spine1  8.91661 6.67197 -10.9747
HEad  39.5075 3.41541 -179.482
LeftShoulder1  7.66479 -11.589 -44.2149
LeftArm  -12.067 23.2485 -27.7551
LeftForeArm  30.0379 -21.9418 -3.37201
LeftHand  -0.25398 0.0180481 5.50724
RightShoulder  5.65512 9.63771 37.0236
RightArm  0.248572 -3.00782 41.8719
RightForeArm  11.3385 12.6058 7.31619
RightHand  -3.18215 9.79239 -24.4203
LeftUpLeg  -8.29227 15.0886 -14.5883
LeftLeg  21.4592 8.61816 4.0122
LeftFoot  -7.72712 -0.318764 11.5294
LeftToes  1.06246e-005 4.65856e-005 -8.18502e-006
1381
root  25.1573 38.9657 19.3513 161.129 63.1271 168.197
RightUpLeg  -12.2932 -11.0611 -13.1754
RightLeg  64.2981 -0.987163 -2.86087
RightFoot  8.64437 -0.900061 5.44797
RightToes  0.00048216 0.542163 -0.142577
Spine  10.9595 2.54982 2.84866
Spine1  8.47482 5.48397 -10.0059
HEad  39.2203 3.0159 178.877
LeftShoulder1  7.58576 -11.4578 -44.1384
LeftArm  -12.7778 22.1086 -28.7592
LeftForeArm  32.9582 -27.8262 -4.20009
LeftHand  -0.25398 0.0180481 5.50724
RightShoulder  5.62504 9.51261 37.1997
RightArm  0.96702 -5.5649 40.1933
RightForeArm  8.83092 14.1723 6.89834
RightHand  -3.39537 10.3153 -25.1575
LeftUpLeg  -4.7978 12.6555 -13.0928
LeftLeg  20.1258 8.49158 3.4294
LeftFoot  -8.81966 -0.178538 10.4696
LeftToes  1.06246e-005 4.65856e-005 -8.18502e-006
1382
root  26.4607 39.2141 18.9367 163.809 60.4902 171.025
RightUpLeg  -15.1416 -11.3631 -12.6433
RightLeg  57.9158 -1.87268 -3.66814
RightFoot  6.57994 -0.630149 4.26757
RightToes  0.00048216 0.542163 -0.142577
Spine  11.7871 1.98297 3.35518
Spine1  7.6338 4.57156 -8.90466
HEad  38.9018 2.75027 178.036
LeftShoulder1  7.53101 -11.4039 -43.9697
LeftArm  -13.0431 21.6573 -29.6003
LeftForeArm  36.8531 -34.8181 -5.66043
LeftHand  -0.25398 0.0180481 5.50724
RightShoulder  5.4598 9.25688 36.7832
RightArm  2.26157 -9.0396 38.9324
RightForeArm  4.86615 16.6356 6.21783
RightHand  -3.60563 10.9563 -25.6447
LeftUpLeg  -1.44181 10.1222 -11.4937
LeftLeg  18.6705 8.28164 2.53403
LeftFoot  -10.0406 -0.0464984 9.4608
LeftToes  1.06246e-005 4.65856e-005 -8.18502e-006
1383
root  27.7918 39.3697 18.5316 165.479 58.1335 172.48
RightUpLeg  -16.8138 -11.399 -12.5905
RightLeg  48.4622 -3.66001 -4.70519
RightFoot  4.39011 -0.397827 3.1154
RightToes  0.00048216 0.542163 -0.142577
Spine  11.9928 1.83334 3.37853
Spine1  7.24298 4.10654 -7.89792
HEad  38.7078 2.44742 177.584
LeftShoulder1  7.48917 -11.3725 -43.8095
LeftArm  -12.7422 21.3552 -30.0061
LeftForeArm  40.8339 -42.3615 -7.52908
LeftHand  -0.25398 0.0180481 5.50724
RightShoulder  5.26404 8.99997 36.116
RightArm  3.1357 -12.4387 38.0252
RightForeArm  0.872161 18.7474 5.67481
RightHand  -3.79376 11.4276 -26.2014
LeftUpLeg  1.42066 7.97892 -10.2359
LeftLeg  17.3022 7.54165 1.30985
LeftFoot  -11.1219 0.0500801 9.04486
LeftToes  1.06246e-005 4.65856e-005 -8.18502e-006
1384
root  29.2071 39.3731 18.1474 166.354 55.5787 172.52
RightUpLeg  -17.3275 -11.8196 -13.4705
RightLeg  36.2879 -5.87997 -4.89204
RightFoot  2.96214 -0.419088 3.49529
RightToes  0.00048216 0.542163 -0.142577
Spine  11.2449 1.8652 2.20807
Spine1  7.42242 3.70843 -6.93806
HEad  38.8081 1.92806 177.603
LeftShoulder1  7.43633 -11.2923 -43.7319
LeftArm  -12.4339 20.9349 -29.9277
LeftForeArm  44.364 -49.4789 -9.78531
LeftHand  -0.25398 0.0180481 5.50724
RightShoulder  5.11378 8.80288 35.5814
RightArm  3.32272 -15.1924 37.227
RightForeArm  -1.14307 19.8429 5.43892
RightHand  -3.81932 11.3881 -26.4259
LeftUpLeg  3.27814 6.14828 -9.64281
LeftLeg  17.0013 6.57435 0.362951
LeftFoot  -12.6529 0.176466 8.76144
LeftToes  1.06246e-005 4.65856e-005 -8.18502e-006
1385
root  30.7106 39.3012 17.7506 167.085 52.6276 172.212
RightUpLeg  -16.8126 -12.5094 -14.8366
RightLeg  22.6425 -6.05666 -3.04276
RightFoot  3.2893 -0.494698 4.0247
RightToes  0.00048216 0.542163 -0.142577
Spine  10.1627 1.76288 0.587065
Spine1  7.59574 3.15534 -5.8265
HEad  39.0562 1.05688 177.946
LeftShoulder1  7.4129 -11.2195 -43.8134
LeftArm  -12.7286 20.5572 -29.4723
LeftForeArm  47.0683 -55.3259 -12.2487
LeftHand  -0.25398 0.0180481 5.50724
RightShoulder  5.00068 8.64337 35.203
RightArm  2.94296 -17.4858 36.5811
RightForeArm  -0.522505 19.8167 5.40155
RightHand  -3.63961 10.9411 -25.8953
LeftUpLeg  5.04596 4.77514 -9.14526
LeftLeg  16.8371 5.04149 -0.333028
LeftFoot  -14.5246 0.311366 8.06471
LeftToes  1.06246e-005 4.65856e-005 -8.18502e-006
